<svg width="19" height="12" viewBox="0 0 19 12" fill="none" xmlns="http://www.w3.org/2000/svg">
<path d="M15.1169 0.452148L4.07829 0.452148C2.2288 0.452148 0.729492 1.95146 0.729492 3.80095L0.729493 8.3115C0.729493 10.161 2.2288 11.6603 4.07829 11.6603L15.1169 11.6603C16.9664 11.6603 18.4657 10.161 18.4657 8.3115L18.4657 3.80095C18.4657 1.95146 16.9664 0.452148 15.1169 0.452148Z" fill="url(#paint0_linear_14302_154428)"/>
<path d="M15.117 2.10547L4.07837 2.10547C3.14221 2.10547 2.3833 2.86438 2.3833 3.80054L2.3833 8.31109C2.3833 9.24725 3.14221 10.0062 4.07837 10.0062L15.117 10.0062C16.0532 10.0062 16.8121 9.24725 16.8121 8.31109L16.8121 3.80054C16.8121 2.86438 16.0532 2.10547 15.117 2.10547Z" fill="#17151F"/>
<path d="M3.00342 3.80148L3.00342 8.30789C3.00342 8.90155 3.48468 9.38281 4.07834 9.38281L15.1046 9.38281C15.6982 9.38281 16.1795 8.90155 16.1795 8.30789L16.1795 3.80148C16.1795 3.20781 15.6982 2.72655 15.1046 2.72655L4.07834 2.72655C3.48468 2.72655 3.00342 3.20781 3.00342 3.80148Z" fill="#464552"/>
<path d="M5.11187 4.25565L5.11187 7.85251C5.11187 7.98409 5.0596 8.11028 4.96656 8.20332C4.87352 8.29636 4.74733 8.34863 4.61575 8.34863C4.48734 8.33908 4.36662 8.28375 4.27557 8.19269C4.18452 8.10164 4.12918 7.98093 4.11963 7.85251L4.11963 4.25565C4.12918 4.12724 4.18452 4.00653 4.27557 3.91547C4.36662 3.82442 4.48734 3.76908 4.61575 3.75953C4.6809 3.75953 4.74541 3.77237 4.8056 3.7973C4.8658 3.82223 4.92049 3.85878 4.96656 3.90484C5.01263 3.95091 5.04917 4.0056 5.0741 4.0658C5.09903 4.12599 5.11187 4.1905 5.11187 4.25565Z" fill="#7E7C94"/>
<path d="M7.59234 4.25565L7.59234 7.85251C7.59234 7.91767 7.5795 7.98218 7.55457 8.04237C7.52964 8.10256 7.49309 8.15725 7.44703 8.20332C7.40096 8.24939 7.34626 8.28594 7.28607 8.31087C7.22588 8.3358 7.16137 8.34863 7.09622 8.34863C6.9678 8.33908 6.84709 8.28375 6.75604 8.19269C6.66498 8.10164 6.60965 7.98093 6.6001 7.85251L6.6001 4.25565C6.60965 4.12724 6.66498 4.00653 6.75604 3.91547C6.84709 3.82442 6.9678 3.76908 7.09622 3.75953C7.16137 3.75953 7.22588 3.77237 7.28607 3.7973C7.34626 3.82223 7.40096 3.85878 7.44702 3.90484C7.49309 3.95091 7.52964 4.0056 7.55457 4.0658C7.5795 4.12599 7.59234 4.1905 7.59234 4.25565Z" fill="#7E7C94"/>
<path d="M10.0733 4.25565L10.0733 7.85251C10.0733 7.91767 10.0605 7.98218 10.0355 8.04237C10.0106 8.10256 9.97405 8.15725 9.92798 8.20332C9.88191 8.24939 9.82722 8.28594 9.76703 8.31087C9.70684 8.3358 9.64232 8.34863 9.57717 8.34863C9.44876 8.33908 9.32805 8.28375 9.23699 8.19269C9.14594 8.10164 9.09061 7.98093 9.08105 7.85251L9.08105 4.25565C9.0906 4.12724 9.14594 4.00653 9.23699 3.91547C9.32804 3.82442 9.44876 3.76908 9.57717 3.75953C9.64232 3.75953 9.70684 3.77237 9.76703 3.7973C9.82722 3.82223 9.88191 3.85878 9.92798 3.90484C9.97405 3.95091 10.0106 4.0056 10.0355 4.0658C10.0605 4.12599 10.0733 4.1905 10.0733 4.25565Z" fill="#7E7C94"/>
<path d="M12.5538 4.25565L12.5538 7.85251C12.5538 7.91767 12.5409 7.98218 12.516 8.04237C12.4911 8.10256 12.4545 8.15725 12.4085 8.20332C12.3624 8.24939 12.3077 8.28594 12.2475 8.31087C12.1873 8.3358 12.1228 8.34863 12.0576 8.34863C11.9292 8.33908 11.8085 8.28375 11.7175 8.19269C11.6264 8.10164 11.5711 7.98093 11.5615 7.85251L11.5615 4.25565C11.5711 4.12724 11.6264 4.00653 11.7175 3.91547C11.8085 3.82442 11.9292 3.76908 12.0576 3.75953C12.1228 3.75953 12.1873 3.77237 12.2475 3.7973C12.3077 3.82223 12.3624 3.85878 12.4085 3.90484C12.4545 3.95091 12.4911 4.0056 12.516 4.0658C12.5409 4.12599 12.5538 4.1905 12.5538 4.25565Z" fill="#7E7C94"/>
<path d="M15.0752 4.25565L15.0752 7.85251C15.0657 7.98093 15.0104 8.10164 14.9193 8.19269C14.8283 8.28375 14.7075 8.33908 14.5791 8.34863C14.514 8.34863 14.4495 8.3358 14.3893 8.31087C14.3291 8.28594 14.2744 8.24939 14.2283 8.20332C14.1822 8.15725 14.1457 8.10256 14.1208 8.04237C14.0958 7.98218 14.083 7.91767 14.083 7.85251L14.083 4.25565C14.083 4.1905 14.0958 4.12599 14.1208 4.0658C14.1457 4.0056 14.1822 3.95091 14.2283 3.90484C14.2744 3.85878 14.3291 3.82223 14.3893 3.7973C14.4495 3.77237 14.514 3.75953 14.5791 3.75953C14.7075 3.76908 14.8283 3.82442 14.9193 3.91547C15.0104 4.00652 15.0657 4.12724 15.0752 4.25565Z" fill="#7E7C94"/>
<defs>
<linearGradient id="paint0_linear_14302_154428" x1="1.01063" y1="6.05002" x2="17.5686" y2="6.05002" gradientUnits="userSpaceOnUse">
<stop stop-color="#43414D"/>
<stop offset="0.12" stop-color="#393743"/>
<stop offset="0.41" stop-color="#26242F"/>
<stop offset="0.7" stop-color="#1B1923"/>
<stop offset="1" stop-color="#17151F"/>
</linearGradient>
</defs>
</svg>
